<svg xmlns="http://www.w3.org/2000/svg" viewBox="0 0 500 500"><g id="freepik--Floor--inject-82"><path d="M414,251.49c-91.16-52.63-238.47-52.63-329,0s-90.09,138,1.07,190.6,238.48,52.63,329.05,0S505.15,304.12,414,251.49Z" style="fill:#f5f5f5"></path></g><g id="freepik--Shadows--inject-82"><path d="M375.66,263.41c-11.33-6.55-29.64-6.55-40.9,0s-11.19,17.14.14,23.68,29.64,6.55,40.89,0S387,270,375.66,263.41Z" style="fill:#ebebeb"></path><path d="M129.29,418.9c-2.76,1.6-2.77,4.18,0,5.77l11.28,6.51a11,11,0,0,0,10,0l123.68-71.41c2.76-1.59,2.78-4.18,0-5.77L263,347.49a11,11,0,0,0-10,0Z" style="fill:#ebebeb"></path><path d="M164,429.15c-2.77,1.6-2.78,4.18,0,5.78l11.28,6.5a11,11,0,0,0,10,0l105.63-61c2.75-1.59,2.78-4.18,0-5.77l-11.28-6.51a11,11,0,0,0-10,0Z" style="fill:#ebebeb"></path><path d="M351.31,424c-23-13.28-60.15-13.28-83,0s-22.72,34.8.27,48.08,60.16,13.27,83,0S374.31,437.25,351.31,424Z" style="fill:#ebebeb"></path><path d="M452.5,313.21c-6.36-3.66-16.62-3.66-22.93,0s-6.28,9.62.08,13.28,16.61,3.67,22.92,0S458.85,316.88,452.5,313.21Z" style="fill:#ebebeb"></path><path d="M81.14,371.44,135.66,340a2.42,2.42,0,0,0,0-4.18l-48-27.92a2.41,2.41,0,0,0-2.42,0L29.47,340a2.42,2.42,0,0,0,0,4.18L76.3,371.44A4.81,4.81,0,0,0,81.14,371.44Z" style="fill:#ebebeb"></path></g><g id="freepik--Windows--inject-82"><polygon points="185.06 134.29 185.18 178.59 182.72 180.02 182.59 135.71 185.06 134.29" style="fill:#e0e0e0"></polygon><polygon points="182.59 135.71 182.59 135.71 182.72 180.02 180.58 178.77 180.46 136.94 182.59 135.71" style="fill:#f0f0f0"></polygon><rect x="182.4" y="135" width="2.85" transform="translate(-42.87 110) rotate(-30)" style="fill:#e0e0e0"></rect><polygon points="182.6 137.7 182.59 135.71 185.06 134.29 185.06 136.28 182.6 137.7 182.6 137.7" style="opacity:0.2"></polygon><polygon points="182.6 137.7 180.87 136.71 182.59 135.71 182.59 135.71 182.6 137.7" style="opacity:0.2"></polygon><rect x="182.4" y="135" width="2.85" transform="translate(-42.87 110) rotate(-30)" style="fill:#e0e0e0"></rect><polygon points="185.06 86.81 185.18 131.11 182.72 132.53 182.59 88.23 185.06 86.81" style="fill:#e0e0e0"></polygon><polygon points="182.59 88.23 182.59 88.23 182.72 132.53 180.58 131.29 180.46 89.46 182.59 88.23" style="fill:#f0f0f0"></polygon><rect x="182.4" y="87.52" width="2.85" transform="translate(-19.13 103.63) rotate(-30)" style="fill:#e0e0e0"></rect><polygon points="182.6 90.22 182.59 88.23 185.06 86.81 185.06 88.8 182.6 90.22 182.6 90.22" style="opacity:0.2"></polygon><polygon points="182.6 90.22 180.87 89.22 182.59 88.23 182.59 88.23 182.6 90.22" style="opacity:0.2"></polygon><rect x="182.4" y="87.52" width="2.85" transform="translate(-19.13 103.64) rotate(-30)" style="fill:#e0e0e0"></rect><polygon points="185.06 39.32 185.18 83.63 182.72 85.05 182.59 40.75 185.06 39.32" style="fill:#e0e0e0"></polygon><polygon points="182.59 40.75 182.59 40.75 182.72 85.05 180.58 83.81 180.46 41.98 182.59 40.75" style="fill:#f0f0f0"></polygon><rect x="182.4" y="40.03" width="2.85" transform="translate(4.61 97.27) rotate(-30)" style="fill:#e0e0e0"></rect><polygon points="182.6 42.74 182.59 40.75 185.06 39.32 185.06 41.31 182.6 42.74 182.6 42.74" style="opacity:0.2"></polygon><polygon points="182.6 42.74 180.87 41.74 182.59 40.75 182.59 40.75 182.6 42.74" style="opacity:0.2"></polygon><rect x="182.4" y="40.03" width="2.85" transform="translate(4.61 97.27) rotate(-30)" style="fill:#e0e0e0"></rect><polygon points="103.56 181.77 103.69 226.08 101.22 227.5 101.1 183.19 103.56 181.77" style="fill:#e0e0e0"></polygon><polygon points="101.1 183.19 101.1 183.19 101.22 227.5 99.08 226.25 98.96 184.43 101.1 183.19" style="fill:#f0f0f0"></polygon><rect x="100.91" y="182.48" width="2.85" transform="translate(-77.53 75.61) rotate(-30)" style="fill:#e0e0e0"></rect><polygon points="101.1 185.18 101.1 183.19 103.56 181.77 103.57 183.76 101.1 185.18 101.1 185.18" style="opacity:0.2"></polygon><polygon points="101.1 185.18 99.37 184.19 101.1 183.19 101.1 183.19 101.1 185.18" style="opacity:0.2"></polygon><rect x="100.91" y="182.48" width="2.85" transform="translate(-77.53 75.61) rotate(-30)" style="fill:#e0e0e0"></rect><g style="isolation:isolate"><polygon points="133.23 117.16 131.09 115.91 131.21 160.22 133.36 161.46 133.23 117.16" style="fill:#f0f0f0"></polygon><polygon points="133.36 161.46 131.21 160.22 69.41 195.9 71.55 197.15 133.36 161.46" style="fill:#f5f5f5"></polygon><path d="M135.83,162.87,69.09,201.4l-.14-50,66.74-38.53ZM71.55,197.15l61.81-35.69-.13-44.3L71.42,152.84l.13,44.31" style="fill:#e0e0e0"></path><polygon points="135.69 112.9 133.54 111.66 66.81 150.19 68.95 151.43 135.69 112.9" style="fill:#f5f5f5"></polygon><polygon points="68.95 151.43 66.81 150.19 66.95 200.16 69.09 201.4 68.95 151.43" style="fill:#f0f0f0"></polygon></g><polygon points="103.56 134.29 103.69 178.59 101.22 180.02 101.1 135.71 103.56 134.29" style="fill:#e0e0e0"></polygon><polygon points="101.1 135.71 101.1 135.71 101.22 180.02 99.08 178.77 98.96 136.94 101.1 135.71" style="fill:#f0f0f0"></polygon><rect x="100.91" y="135" width="2.85" transform="translate(-53.79 69.25) rotate(-30)" style="fill:#e0e0e0"></rect><polygon points="101.1 137.7 101.1 135.71 103.56 134.29 103.57 136.28 101.1 137.7 101.1 137.7" style="opacity:0.2"></polygon><polygon points="101.1 137.7 99.37 136.71 101.1 135.71 101.1 135.71 101.1 137.7" style="opacity:0.2"></polygon><rect x="100.91" y="135" width="2.85" transform="translate(-53.79 69.25) rotate(-30)" style="fill:#e0e0e0"></rect><g style="isolation:isolate"><polygon points="133.23 69.68 131.09 68.43 131.21 112.74 133.36 113.98 133.23 69.68" style="fill:#f0f0f0"></polygon><polygon points="133.36 113.98 131.21 112.74 69.41 148.42 71.55 149.66 133.36 113.98" style="fill:#f5f5f5"></polygon><path d="M135.83,115.39,69.09,153.92,69,104l66.74-38.53ZM71.55,149.66,133.36,114l-.13-44.3L71.42,105.36l.13,44.3" style="fill:#e0e0e0"></path><polygon points="135.69 65.42 133.54 64.17 66.81 102.7 68.95 103.95 135.69 65.42" style="fill:#f5f5f5"></polygon><polygon points="68.95 103.95 66.81 102.7 66.95 152.68 69.09 153.92 68.95 103.95" style="fill:#f0f0f0"></polygon></g><polygon points="103.56 86.81 103.69 131.11 101.22 132.53 101.1 88.23 103.56 86.81" style="fill:#e0e0e0"></polygon><polygon points="101.1 88.23 101.1 88.23 101.22 132.53 99.08 131.29 98.96 89.46 101.1 88.23" style="fill:#f0f0f0"></polygon><rect x="100.91" y="87.52" width="2.85" transform="translate(-30.05 62.89) rotate(-30)" style="fill:#e0e0e0"></rect><polygon points="101.1 90.22 101.1 88.23 103.56 86.81 103.57 88.8 101.1 90.22 101.1 90.22" style="opacity:0.2"></polygon><polygon points="101.1 90.22 99.37 89.22 101.1 88.23 101.1 88.23 101.1 90.22" style="opacity:0.2"></polygon><rect x="100.91" y="87.52" width="2.85" transform="translate(-30.05 62.89) rotate(-30)" style="fill:#e0e0e0"></rect><polygon points="214.73 117.16 212.58 115.91 212.71 160.22 214.85 161.46 214.73 117.16" style="fill:#f0f0f0"></polygon><polygon points="214.85 161.46 212.71 160.22 150.9 195.9 153.05 197.15 214.85 161.46" style="fill:#f5f5f5"></polygon><path d="M217.33,162.87,150.59,201.4l-.14-50,66.73-38.53Zm-64.28,34.28,61.8-35.69-.12-44.3-61.81,35.68.13,44.31" style="fill:#e0e0e0"></path><polygon points="217.18 112.9 215.04 111.66 148.31 150.19 150.45 151.43 217.18 112.9" style="fill:#f5f5f5"></polygon><polygon points="150.45 151.43 148.31 150.19 148.45 200.16 150.59 201.4 150.45 151.43" style="fill:#f0f0f0"></polygon><polygon points="214.73 69.68 212.58 68.43 212.71 112.74 214.85 113.98 214.73 69.68" style="fill:#f0f0f0"></polygon><polygon points="214.85 113.98 212.71 112.74 150.9 148.42 153.05 149.66 214.85 113.98" style="fill:#f5f5f5"></polygon><path d="M217.33,115.39l-66.74,38.53-.14-50,66.73-38.53Zm-64.28,34.27L214.85,114l-.12-44.3-61.81,35.68.13,44.3" style="fill:#e0e0e0"></path><polygon points="217.18 65.42 215.04 64.17 148.31 102.7 150.45 103.95 217.18 65.42" style="fill:#f5f5f5"></polygon><polygon points="150.45 103.95 148.31 102.7 148.45 152.68 150.59 153.92 150.45 103.95" style="fill:#f0f0f0"></polygon><polygon points="214.73 22.19 212.58 20.95 212.71 65.25 214.85 66.5 214.73 22.19" style="fill:#f0f0f0"></polygon><polygon points="214.85 66.5 212.71 65.25 150.9 100.94 153.05 102.18 214.85 66.5" style="fill:#f5f5f5"></polygon><path d="M217.33,67.91l-66.74,38.53-.14-50,66.73-38.53Zm-64.28,34.27,61.8-35.68-.12-44.31L152.92,57.88l.13,44.3" style="fill:#e0e0e0"></path><polygon points="217.18 17.94 215.04 16.69 148.31 55.22 150.45 56.47 217.18 17.94" style="fill:#f5f5f5"></polygon><polygon points="150.45 56.47 148.31 55.22 148.45 105.19 150.59 106.44 150.45 56.47" style="fill:#f0f0f0"></polygon><polygon points="133.23 164.64 131.09 163.4 131.21 207.7 133.36 208.95 133.23 164.64" style="fill:#f0f0f0"></polygon><polygon points="133.36 208.95 131.21 207.7 69.41 243.38 71.55 244.63 133.36 208.95" style="fill:#f5f5f5"></polygon><path d="M135.83,210.36,69.09,248.89l-.14-50,66.74-38.54ZM71.55,244.63,133.36,209l-.13-44.31L71.42,200.32l.13,44.31" style="fill:#e0e0e0"></path><polygon points="135.69 160.38 133.54 159.14 66.81 197.67 68.95 198.91 135.69 160.38" style="fill:#f5f5f5"></polygon><polygon points="68.95 198.91 66.81 197.67 66.95 247.64 69.09 248.89 68.95 198.91" style="fill:#f0f0f0"></polygon></g><g id="freepik--side-table--inject-82"><polygon points="123.53 336 128.19 338.7 128.17 333.32 123.53 336" style="fill:#e6e6e6"></polygon><polygon points="128.06 307.25 128.06 307.19 128.06 307.19 128.06 307.19 128.06 307.25" style="fill:#787878"></polygon><rect x="105.4" y="294.11" height="52.32" style="fill:#cfcfcf"></rect><polygon points="127.98 281.04 82.67 307.2 82.67 307.2 127.98 281.04" style="fill:#cfcfcf"></polygon><path d="M128.17,333.32v5.38l4.86-2.8-.18-63.3-55.1,31.81.18,63.3,4.85-2.8,0-5.38L123.53,336ZM82.67,307.2h0L128,281l.06,20.53L82.73,327.73Zm.07,26.15h0l45.32-26.16h0v.06l.05,20.47L82.8,353.88Z" style="fill:#e6e6e6"></path><polygon points="128.11 327.72 128.06 307.25 128.06 307.19 82.74 333.35 82.74 333.35 82.8 353.88 128.11 327.72" style="fill:#e0e0e0"></polygon><polygon points="128.04 301.57 127.98 281.04 82.67 307.2 82.67 307.2 82.73 327.74 128.04 301.57" style="fill:#e0e0e0"></polygon><polygon points="77.76 304.41 29.66 276.45 29.84 339.76 77.94 367.71 77.76 304.41" style="fill:#e0e0e0"></polygon><polygon points="77.76 304.41 132.86 272.6 84.75 244.64 29.66 276.45 77.76 304.41" style="fill:#e0e0e0"></polygon><polygon points="123.53 336 128.19 338.7 128.17 333.32 123.53 336" style="fill:#e6e6e6"></polygon><polygon points="128.06 307.25 128.06 307.19 128.06 307.19 128.06 307.19 128.06 307.25" style="fill:#787878"></polygon><rect x="105.4" y="294.11" height="52.32" style="fill:#cfcfcf"></rect><polygon points="127.98 281.04 82.67 307.2 82.67 307.2 127.98 281.04" style="fill:#cfcfcf"></polygon><polygon points="128.11 327.72 128.06 307.25 128.06 307.19 82.74 333.35 82.74 333.35 82.8 353.88 128.11 327.72" style="fill:#fff;opacity:0.8"></polygon><polygon points="128.04 301.57 127.98 281.04 82.67 307.2 82.67 307.2 82.73 327.74 128.04 301.57" style="fill:#fff;opacity:0.8"></polygon><polygon points="113.21 297.21 113.19 294.37 97.5 303.43 97.5 303.43 97.52 306.27 113.21 297.21" style="fill:#e0e0e0"></polygon><polygon points="113.21 322.99 113.19 320.16 97.5 329.22 97.5 329.22 97.52 332.05 113.21 322.99" style="fill:#e0e0e0"></polygon><polygon points="77.76 304.41 29.66 276.45 29.84 339.76 77.94 367.71 77.76 304.41" style="fill:#ebebeb"></polygon><polygon points="77.76 304.41 132.86 272.6 84.75 244.64 29.66 276.45 77.76 304.41" style="fill:#f0f0f0"></polygon><path d="M71.36,264.57c6.12-3.54,16-3.54,22.08,0s6,9.25-.07,12.79-16,3.53-22.08,0S65.24,268.1,71.36,264.57Z" style="opacity:0.05"></path><path d="M66.06,242.34l16.78.49,16.78-.49c.73,11.33-1.49,22.89-4.54,28.53h0a7.69,7.69,0,0,1-3.32,3.38c-5,2.86-13,2.86-17.88,0a7.48,7.48,0,0,1-3.32-3.47C67.52,265.11,65.34,253.62,66.06,242.34Z" style="fill:#fff"></path><path d="M71,235.47c-6.58,3.79-6.61,9.95-.08,13.74s17.16,3.8,23.74,0,6.61-10,.08-13.74S77.59,231.67,71,235.47Z" style="fill:#ebebeb"></path><path d="M73.61,237c-5.13,3-5.16,7.76-.06,10.72s13.39,3,18.52,0,5.15-7.76.06-10.72S78.74,234,73.61,237Z" style="fill:#e0e0e0"></path><g style="opacity:0.15"><path d="M73.61,237c-5.13,3-5.16,7.76-.06,10.72s13.39,3,18.52,0,5.15-7.76.06-10.72S78.74,234,73.61,237Z"></path></g><path d="M84.24,242.81a11,11,0,0,1-9.84,2.24,10.29,10.29,0,0,1-6.9-7,20.18,20.18,0,0,0,5.38-3.74,13.75,13.75,0,0,0-7.62.27,7.77,7.77,0,0,1-.58-7.28,13.39,13.39,0,0,1,9.1-.63,12.07,12.07,0,0,0-9.2-2.9,35.18,35.18,0,0,1,2.21-14.13c6.26.33,12.32,3,14.37,5,.35,2.51-.69,6.65-.69,6.65a5.39,5.39,0,0,0,2.9-4.3c3.92,1,5.59,2.94,6.21,4.43a16.4,16.4,0,0,1-3.71,7.51c3.68-1.12,5.17-5.21,5.17-5.21C94.65,232.28,94,242,84.24,242.81Z" style="fill:#407BFF"></path><path d="M84.24,242.81a11,11,0,0,1-9.84,2.24,10.29,10.29,0,0,1-6.9-7,20.18,20.18,0,0,0,5.38-3.74,13.75,13.75,0,0,0-7.62.27,7.77,7.77,0,0,1-.58-7.28,13.39,13.39,0,0,1,9.1-.63,12.07,12.07,0,0,0-9.2-2.9,35.18,35.18,0,0,1,2.21-14.13c6.26.33,12.32,3,14.37,5,.35,2.51-.69,6.65-.69,6.65a5.39,5.39,0,0,0,2.9-4.3c3.92,1,5.59,2.94,6.21,4.43a16.4,16.4,0,0,1-3.71,7.51c3.68-1.12,5.17-5.21,5.17-5.21C94.65,232.28,94,242,84.24,242.81Z" style="opacity:0.2"></path><path d="M84.24,242.81a11,11,0,0,1-9.84,2.24,10.29,10.29,0,0,1-6.9-7,20.18,20.18,0,0,0,5.38-3.74,13.75,13.75,0,0,0-7.62.27,7.77,7.77,0,0,1-.58-7.28,13.39,13.39,0,0,1,9.1-.63,12.07,12.07,0,0,0-9.2-2.9,35.18,35.18,0,0,1,2.21-14.13c6.26.33,12.32,3,14.37,5,.35,2.51-.69,6.65-.69,6.65a5.39,5.39,0,0,0,2.9-4.3c3.92,1,5.59,2.94,6.21,4.43a16.4,16.4,0,0,1-3.71,7.51c3.68-1.12,5.17-5.21,5.17-5.21C94.65,232.28,94,242,84.24,242.81Z" style="fill:#fff;opacity:0.30000000000000004"></path><path d="M84.46,243.74h0a.36.36,0,0,0,.33-.39c-.6-7.9-5.12-20.94-15.9-31.7a.36.36,0,1,0-.51.51c10.64,10.62,15.1,23.47,15.69,31.25A.35.35,0,0,0,84.46,243.74Z" style="fill:#f5f5f5"></path><path d="M81.5,247a10.27,10.27,0,0,0,16.07-4.22,17.23,17.23,0,0,1-4.86-3.31,13.89,13.89,0,0,1,7.21.21,6.74,6.74,0,0,0,1-6.49,13.26,13.26,0,0,0-8.59-.5,12.66,12.66,0,0,1,8.91-2.65A28.8,28.8,0,0,0,100,217.46c-6,.37-11.86,2.84-13.91,4.58a18.65,18.65,0,0,0,.24,5.91,4.34,4.34,0,0,1-2.47-3.8c-3.74.91-5.43,2.65-6.09,4a13.11,13.11,0,0,0,3,6.63c-3.37-1-4.51-4.58-4.51-4.58C72.42,237.77,72.48,246.32,81.5,247Z" style="fill:#407BFF"></path><path d="M81.5,247a10.27,10.27,0,0,0,16.07-4.22,17.23,17.23,0,0,1-4.86-3.31,13.89,13.89,0,0,1,7.21.21,6.74,6.74,0,0,0,1-6.49,13.26,13.26,0,0,0-8.59-.5,12.66,12.66,0,0,1,8.91-2.65A28.8,28.8,0,0,0,100,217.46c-6,.37-11.86,2.84-13.91,4.58a18.65,18.65,0,0,0,.24,5.91,4.34,4.34,0,0,1-2.47-3.8c-3.74.91-5.43,2.65-6.09,4a13.11,13.11,0,0,0,3,6.63c-3.37-1-4.51-4.58-4.51-4.58C72.42,237.77,72.48,246.32,81.5,247Z" style="fill:#fff;opacity:0.30000000000000004"></path><path d="M81.26,247.91a.37.37,0,0,0,.36-.31c1-6.88,6-18.3,16.74-27.85a.36.36,0,0,0-.48-.54C87,228.88,82,240.49,80.9,247.49a.36.36,0,0,0,.31.41Z" style="fill:#fff"></path></g><g id="freepik--Plant--inject-82"><path d="M456.45,292.12l-15.38.44-15.38-.44c-.66,10.38,1.37,21,4.16,26.13h0a7,7,0,0,0,3,3.1c4.54,2.62,11.87,2.62,16.38,0a6.89,6.89,0,0,0,3-3.18C455.1,313,457.11,302.45,456.45,292.12Z" style="fill:#fff"></path><path d="M451.91,285.82c6,3.48,6,9.12.07,12.59s-15.72,3.48-21.75,0-6.05-9.11-.07-12.59S445.88,282.34,451.91,285.82Z" style="fill:#ebebeb"></path><path d="M449.53,287.2c4.7,2.72,4.72,7.12.05,9.83s-12.26,2.71-17,0-4.73-7.11-.06-9.83S444.83,284.49,449.53,287.2Z" style="fill:#e0e0e0"></path><g style="opacity:0.15"><path d="M449.53,287.2c4.7,2.72,4.72,7.12.05,9.83s-12.26,2.71-17,0-4.73-7.11-.06-9.83S444.83,284.49,449.53,287.2Z"></path></g><path d="M466.35,226.5c-34.65,11.35-35,34.53-27.15,51,2,3.34,7.93,5.13,13.12-15.4l-9.1,1.17,10.61-5.38,2.75-8.23-8.84.65L459,245.63A166.9,166.9,0,0,1,466.35,226.5Z" style="fill:#407BFF"></path><path d="M466.35,226.5c-34.65,11.35-35,34.53-27.15,51,2,3.34,7.93,5.13,13.12-15.4l-9.1,1.17,10.61-5.38,2.75-8.23-8.84.65L459,245.63A166.9,166.9,0,0,1,466.35,226.5Z" style="opacity:0.2"></path><path d="M466.35,226.5c-34.65,11.35-35,34.53-27.15,51,2,3.34,7.93,5.13,13.12-15.4l-9.1,1.17,10.61-5.38,2.75-8.23-8.84.65L459,245.63A166.9,166.9,0,0,1,466.35,226.5Z" style="fill:#fff;opacity:0.2"></path><path d="M456.55,232.3c-18.27,13.87-19.92,29.77-14.76,46.37C440,264.05,438,249.27,456.55,232.3Z" style="fill:#fff"></path><path d="M407.66,250.05c34.16,4.81,38.3,26.35,33.77,43-1.28,3.44-6.54,6.1-14.78-12.16l8.67-.42-10.77-3.25L420.61,270l8.35-.86-11.24-2.53A157.69,157.69,0,0,0,407.66,250.05Z" style="fill:#407BFF"></path><path d="M407.66,250.05c34.16,4.81,38.3,26.35,33.77,43-1.28,3.44-6.54,6.1-14.78-12.16l8.67-.42-10.77-3.25L420.61,270l8.35-.86-11.24-2.53A157.69,157.69,0,0,0,407.66,250.05Z" style="fill:#fff;opacity:0.2"></path><path d="M407.66,250.05c34.16,4.81,38.3,26.35,33.77,43-1.28,3.44-6.54,6.1-14.78-12.16l8.67-.42-10.77-3.25L420.61,270l8.35-.86-11.24-2.53A157.69,157.69,0,0,0,407.66,250.05Z" style="opacity:0.1"></path><path d="M417.75,253.82c19.32,9.88,23.5,24.41,21.45,40.73C438.47,280.64,437.86,266.54,417.75,253.82Z" style="fill:#fff"></path><path d="M476.35,258.12c-31.32.51-37.47,19.46-35.25,35,.77,3.25,5.21,6.24,14.68-9.3L448,282.46l10.07-1.72,4.36-6.06L455,273l10.41-1A143.7,143.7,0,0,1,476.35,258.12Z" style="fill:#407BFF"></path><path d="M466.83,260.39c-18.52,6.74-23.91,19.37-23.89,34.31C445.15,282.24,447.29,269.61,466.83,260.39Z" style="fill:#fff"></path><path d="M476.35,258.12c-31.32.51-37.47,19.46-35.25,35,.77,3.25,5.21,6.24,14.68-9.3L448,282.46l10.07-1.72,4.36-6.06L455,273l10.41-1A143.7,143.7,0,0,1,476.35,258.12Z" style="fill:#fff;opacity:0.2"></path></g><g id="freepik--Lamp--inject-82"><path d="M369.35,271.73c-.09,2-1.45,4-4.08,5.52-5.48,3.18-14.4,3.18-19.92,0-2.65-1.53-4-3.52-4.14-5.52h0v4.44h0c0,2.09,1.39,4.18,4.15,5.77,5.52,3.19,14.44,3.19,19.92,0,2.74-1.59,4.1-3.68,4.09-5.77h0v-4.44Z" style="fill:#e0e0e0"></path><path d="M345.35,277.25c5.52,3.18,14.44,3.18,19.92,0,2.63-1.53,4-3.52,4.08-5.52a5,5,0,0,0-.57-2.55,8.84,8.84,0,0,0-3.57-3.47c-5.52-3.19-14.44-3.19-19.92,0a8.68,8.68,0,0,0-3.54,3.47,5,5,0,0,0-.54,2.55C341.32,273.73,342.7,275.72,345.35,277.25Z" style="fill:#f0f0f0"></path><rect x="344.23" y="146.98" width="0.42" height="37.13" style="fill:#e0e0e0"></rect><path d="M345.47,184.52a1,1,0,1,1-1-1A1,1,0,0,1,345.47,184.52Z" style="fill:#f0f0f0"></path><path d="M357.81,133.6h-5.06V270.26h0a1.29,1.29,0,0,0,.75,1,3.94,3.94,0,0,0,3.57,0,1.22,1.22,0,0,0,.73-1h0Z" style="fill:#e0e0e0"></path><path d="M384.36,140.43h0c-3.24-11.26-15.59-34.49-15.59-34.49h0c1.42,2.77.25,5.89-3.51,8.07-5.48,3.19-14.4,3.19-19.92,0-3.78-2.18-5-5.3-3.6-8.07h0s-12.35,23.23-15.59,34.49h0c-2.2,5.61.49,11.75,8.07,16.12,11.7,6.76,30.61,6.76,42.24,0C384,152.18,386.61,146.05,384.36,140.43Z" style="fill:#f0f0f0"></path><path d="M368.78,105.94a8.84,8.84,0,0,0-3.57-3.47c-5.52-3.18-14.44-3.18-19.92,0a8.68,8.68,0,0,0-3.54,3.47c-1.38,2.77-.18,5.89,3.6,8.07,5.52,3.19,14.44,3.19,19.92,0C369,111.83,370.2,108.71,368.78,105.94Z" style="fill:#e0e0e0"></path><path d="M368.78,105.94a8.84,8.84,0,0,0-3.57-3.47c-5.52-3.18-14.44-3.18-19.92,0a8.68,8.68,0,0,0-3.54,3.47c-1.38,2.77-.18,5.89,3.6,8.07,5.52,3.19,14.44,3.19,19.92,0C369,111.83,370.2,108.71,368.78,105.94Z" style="opacity:0.1"></path></g><g id="freepik--Pictures--inject-82"><polygon points="409.31 84.08 441.75 102.81 441.68 127.6 409.24 108.87 409.31 84.08" style="fill:none"></polygon><polygon points="409.31 84.08 409.24 108.87 406.24 110.62 406.32 82.35 409.31 84.08" style="fill:#f0f0f0"></polygon><polygon points="441.68 127.6 441.67 131.07 406.24 110.62 409.24 108.87 441.68 127.6" style="fill:#f5f5f5"></polygon><path d="M402.6,112.69l42.69,24.65.1-36.6L402.7,76.09Zm3.64-2.07.08-28.27,3,1.73,32.44,18.73-.07,24.79v3.47Z" style="fill:#e0e0e0"></path><polygon points="402.7 76.09 405.7 74.34 448.4 98.99 445.39 100.74 402.7 76.09" style="fill:#f5f5f5"></polygon><polygon points="448.4 98.99 448.29 135.6 445.29 137.34 445.39 100.74 448.4 98.99" style="fill:#f0f0f0"></polygon><g style="isolation:isolate"><polygon points="419.62 93.49 410.77 100.46 410.75 107.26 440.18 124.25 440.19 117.44 434.59 106.31 429.55 110.22 431.33 115.75 428.75 110.84 419.62 93.49" style="fill:#e0e0e0"></polygon><path d="M429.28,96.92c-1.38-.8-2.51-.15-2.51,1.44a5.49,5.49,0,0,0,2.5,4.33c1.38.79,2.51.15,2.51-1.44A5.49,5.49,0,0,0,429.28,96.92Z" style="fill:#e0e0e0"></path></g><polygon points="408.04 134.8 440.48 153.52 440.41 178.31 407.97 159.59 408.04 134.8" style="fill:none"></polygon><polygon points="408.04 134.8 407.97 159.59 404.97 161.33 405.05 133.07 408.04 134.8" style="fill:#f0f0f0"></polygon><polygon points="440.41 178.31 440.4 181.79 404.97 161.33 407.97 159.59 440.41 178.31" style="fill:#f5f5f5"></polygon><path d="M401.32,163.41,444,188.06l.1-36.61-42.69-24.64Zm3.65-2.08.08-28.26,3,1.73,32.44,18.72-.07,24.79v3.48Z" style="fill:#e0e0e0"></path><polygon points="401.43 126.81 404.43 125.06 447.13 149.71 444.12 151.45 401.43 126.81" style="fill:#f5f5f5"></polygon><polygon points="447.13 149.71 447.02 186.31 444.02 188.06 444.12 151.45 447.13 149.71" style="fill:#f0f0f0"></polygon><g style="isolation:isolate"><polygon points="418.35 144.21 409.5 151.17 409.48 157.98 438.9 174.97 438.92 168.16 433.32 157.02 428.28 160.93 430.06 166.46 427.48 161.55 418.35 144.21" style="fill:#e0e0e0"></polygon><path d="M428,147.64c-1.38-.8-2.51-.16-2.51,1.43a5.49,5.49,0,0,0,2.5,4.33c1.38.8,2.51.16,2.51-1.43A5.49,5.49,0,0,0,428,147.64Z" style="fill:#e0e0e0"></path></g></g><g id="freepik--Device--inject-82"><path d="M265.71,75.46h0c-.86-3-7-8.79-13.14-8.67a5.26,5.26,0,0,0-1.71.34L132,134.76a11.54,11.54,0,0,0-5.75,9.89V401.83c0,6.55,7.55,12.8,14.65,9.79,0,0,0,0,0,0a4.22,4.22,0,0,0,.45-.18l118.9-67.76a11.37,11.37,0,0,0,5.74-9.88V76.7A2.8,2.8,0,0,0,265.71,75.46Z" style="fill:#455a64"></path><path d="M142.81,171.83a5.68,5.68,0,0,1,2.87-4.94l110.4-62.81a2.84,2.84,0,0,1,4.25,2.47V313.93a5.69,5.69,0,0,1-2.88,4.94L147.06,381.78a2.84,2.84,0,0,1-4.25-2.47Z" style="fill:#407BFF"></path><path d="M142.81,171.83a5.68,5.68,0,0,1,2.87-4.94l110.4-62.81a2.84,2.84,0,0,1,4.25,2.47V313.93a5.69,5.69,0,0,1-2.88,4.94L147.06,381.78a2.84,2.84,0,0,1-4.25-2.47Z" style="opacity:0.2"></path><path d="M126.22,144.65V401.83c0,6.55,7.55,12.8,14.65,9.79,0,0,0,0,0,0a2.83,2.83,0,0,1-3.8-2.65V151.76a11.37,11.37,0,0,1,1.92-6.29l-11.64-5.81A11.31,11.31,0,0,0,126.22,144.65Z" style="opacity:0.30000000000000004"></path><path d="M252.58,66.78a5.26,5.26,0,0,0-1.71.34L132,134.76a11.36,11.36,0,0,0-4.57,4.9L139,145.47a11.5,11.5,0,0,1,3.83-3.6L261.76,74.23a2.83,2.83,0,0,1,3.95,1.23h0C264.86,72.42,258.71,66.66,252.58,66.78Z" style="fill:#fff;opacity:0.1"></path><path d="M216.22,116.7c.84-.49,1.53-.11,1.53.85a3.36,3.36,0,0,1-1.52,2.63L192.9,133.65c-.83.48-1.51.07-1.51-.89a3.31,3.31,0,0,1,1.5-2.6Z" style="fill:#263238"></path><path d="M186.9,133.62c.84-.48,1.51-.1,1.52.86a3.33,3.33,0,0,1-1.51,2.62c-.83.49-1.52.09-1.53-.87A3.35,3.35,0,0,1,186.9,133.62Z" style="fill:#263238"></path><path d="M201.83,114.74c1.67-1,3-.2,3,1.72a6.67,6.67,0,0,1-3,5.24c-1.66,1-3,.17-3-1.75A6.66,6.66,0,0,1,201.83,114.74Z" style="fill:#263238"></path><path d="M201.84,356.85c3.4-2,6.14-.4,6.15,3.5A13.54,13.54,0,0,1,201.88,371c-3.39,2-6.21.36-6.22-3.54A13.59,13.59,0,0,1,201.84,356.85Z" style="fill:#263238"></path></g><g id="freepik--Screen--inject-82"><path d="M287.47,119.58h0c-.78-2.75-6.36-8-11.92-7.87A4.82,4.82,0,0,0,274,112l-107.92,61.4a10.45,10.45,0,0,0-5.22,9V415.82c0,5.95,6.86,11.62,13.29,8.89l0,0a2.09,2.09,0,0,0,.41-.17L282.54,363a10.32,10.32,0,0,0,5.21-9V120.7A2.44,2.44,0,0,0,287.47,119.58Z" style="fill:#407BFF"></path><path d="M160.86,182.38V415.82c0,5.95,6.86,11.62,13.29,8.89l0,0a2.57,2.57,0,0,1-3.45-2.41V188.83a10.28,10.28,0,0,1,1.75-5.7l-10.57-5.28A10.3,10.3,0,0,0,160.86,182.38Z" style="fill:#fff;opacity:0.2"></path><path d="M275.56,111.7A4.82,4.82,0,0,0,274,112l-107.92,61.4a10.27,10.27,0,0,0-4.15,4.44l10.57,5.28a10.27,10.27,0,0,1,3.47-3.27l107.92-61.4a2.57,2.57,0,0,1,3.58,1.12h0C286.7,116.82,281.12,111.59,275.56,111.7Z" style="fill:#fff;opacity:0.4"></path><path d="M287.47,119.58h0c-.78-2.75-6.36-8-11.92-7.87A4.82,4.82,0,0,0,274,112l-107.92,61.4a10.45,10.45,0,0,0-5.22,9V415.82c0,5.95,6.86,11.62,13.29,8.89l0,0a2.09,2.09,0,0,0,.41-.17L282.54,363a10.32,10.32,0,0,0,5.21-9V120.7A2.44,2.44,0,0,0,287.47,119.58Z" style="fill:#fff;opacity:0.30000000000000004"></path><path d="M278.27,182.38h0a10,10,0,0,1,.62-3.46A10,10,0,0,0,278.27,182.38Z" style="fill:#fff;opacity:0.30000000000000004"></path><path d="M180.88,206.34a4.89,4.89,0,0,1,2.65-.8l-.63,2.13a3.78,3.78,0,0,0-2,.51c-.87.51-1.18,1-1.18,1.44,0,1.29,4.14-2.07,4.15,1,0,1.47-1,3.32-3.22,4.58a5,5,0,0,1-3.08.85l.67-2.14a3.85,3.85,0,0,0,2.41-.56c.85-.5,1.19-1,1.19-1.37,0-1.34-4.15,2-4.16-1.08C177.65,209.43,178.72,207.59,180.88,206.34Z" style="fill:#fff"></path><polygon points="193.97 200.85 191.97 208.51 190.06 209.62 188.98 206.69 187.88 210.88 185.96 211.99 183.93 206.64 185.81 205.56 186.98 208.82 188.16 204.2 189.86 203.22 191.03 206.51 192.23 201.85 193.97 200.85" style="fill:#fff"></polygon><path d="M195.57,199.2c-.74.42-1.22.18-1.22-.51a2.39,2.39,0,0,1,1.21-1.91c.73-.42,1.21-.2,1.21.48A2.37,2.37,0,0,1,195.57,199.2Z" style="fill:#fff"></path><polygon points="194.6 207 194.58 200.49 196.56 199.35 196.58 205.85 194.6 207" style="fill:#fff"></polygon><path d="M201.41,196.44c1.53-.88,2.77-.3,2.78,1.76a6,6,0,0,1-2.77,5,1.56,1.56,0,0,1-1.57.23v2.9l-2,1.14,0-8.82,1.9-1.1v.65A4.07,4.07,0,0,1,201.41,196.44Zm-.41,5.15a2.56,2.56,0,0,0,1.18-2.23c0-1-.52-1.25-1.19-.86a2.59,2.59,0,0,0-1.18,2.23c0,1,.52,1.25,1.19.86" style="fill:#fff"></path><path d="M210.89,194.35c0,.16,0,.38,0,.57l-4.11,2.38c.17.56.66.66,1.39.24a3.63,3.63,0,0,0,1.3-1.31l1.05.64a6.08,6.08,0,0,1-2.41,2.44c-2,1.16-3.32.49-3.32-1.45a6.33,6.33,0,0,1,3.1-5.14C209.53,191.75,210.88,192.2,210.89,194.35Zm-4.18,1.77,2.32-1.34c-.1-.63-.54-.8-1.16-.45a2.55,2.55,0,0,0-1.16,1.79" style="fill:#fff"></path><path d="M218.61,184.55c2.34-1.35,4.07-.5,4.08,2a8.34,8.34,0,0,1-4.05,6.71c-2.34,1.35-4.07.5-4.07-2A8.33,8.33,0,0,1,218.61,184.55Zm0,6.77a4.26,4.26,0,0,0,2-3.54c0-1.45-.87-1.9-2-1.26a4.21,4.21,0,0,0-2,3.53c0,1.45.87,1.91,2,1.27" style="fill:#fff"></path><path d="M227.23,181.53c1.53-.88,2.78-.31,2.79,1.75a6,6,0,0,1-2.77,5,1.6,1.6,0,0,1-1.58.23v2.9l-2,1.14,0-8.83,1.88-1.09v.65A4.19,4.19,0,0,1,227.23,181.53Zm-.4,5.15a2.6,2.6,0,0,0,1.18-2.24c0-1-.52-1.24-1.19-.86a2.62,2.62,0,0,0-1.19,2.24c0,1,.53,1.24,1.2.86" style="fill:#fff"></path><path d="M233.14,176.78v1.69l1.29-.75v1.71l-1.29.74v2.16c0,.48.25.61.6.4a1.84,1.84,0,0,0,.6-.55l.5,1.31a4.61,4.61,0,0,1-1.38,1.16c-1.44.84-2.29.52-2.3-1.15v-2.18l-.83.47v-1.7l.82-.48v-1.69Z" style="fill:#fff"></path><path d="M236.59,175.52c-.73.42-1.21.17-1.21-.51a2.35,2.35,0,0,1,1.2-1.91c.73-.43,1.21-.21,1.22.48A2.4,2.4,0,0,1,236.59,175.52Z" style="fill:#fff"></path><polygon points="235.62 183.31 235.6 176.81 237.58 175.66 237.6 182.17 235.62 183.31" style="fill:#fff"></polygon><path d="M241.7,173.18c1.87-1.08,3.2-.45,3.2,1.5a6.39,6.39,0,0,1-3.18,5.21c-1.84,1.06-3.19.45-3.2-1.52A6.44,6.44,0,0,1,241.7,173.18Zm0,4.9a2.55,2.55,0,0,0,1.19-2.24c0-1-.51-1.25-1.19-.85a2.55,2.55,0,0,0-1.18,2.22c0,1,.52,1.26,1.18.87" style="fill:#fff"></path><path d="M249.5,168.68c1.33-.77,2.34-.47,2.35,1.53v3.73l-2,1.14v-3.35c0-.93-.37-1.12-.94-.79a2.41,2.41,0,0,0-1.12,2.18v3.15l-2,1.14,0-6.5,1.89-1.09v.71A4.76,4.76,0,0,1,249.5,168.68Z" style="fill:#fff"></path><path d="M255.51,165.21a4.53,4.53,0,0,1,2.23-.73l-.59,1.88a3,3,0,0,0-1.63.46c-.67.39-.91.74-.91,1,0,.9,3.34-2,3.34.57,0,1.21-.95,2.69-2.79,3.75a4.73,4.73,0,0,1-2.5.78l.59-1.9a3.4,3.4,0,0,0,2-.54c.68-.39.9-.68.9-1,0-.87-3.35,2.05-3.35-.55C252.75,167.74,253.74,166.23,255.51,165.21Z" style="fill:#fff"></path><g style="opacity:0.5"><path d="M277.3,278.31c1.79-1,3.24-.2,3.24,1.85l.11,40a7.07,7.07,0,0,1-3.21,5.57l-96.55,55.74c-1.78,1-3.22.2-3.23-1.84l-.11-40a7.06,7.06,0,0,1,3.21-5.56Z" style="fill:#fff"></path></g><g style="opacity:0.5"><path d="M277.3,209.27c1.79-1,3.24-.21,3.24,1.84l.11,40a7.07,7.07,0,0,1-3.21,5.56L180.89,312.4c-1.78,1-3.22.2-3.23-1.84l-.11-40a7.06,7.06,0,0,1,3.21-5.56Z" style="fill:#fff"></path></g><polygon points="201.08 264.98 201.09 267.79 216.47 258.9 216.54 281.35 189.03 297.23 188.98 277.43 188.97 274.78 188.96 271.97 201.08 264.98" style="fill:#407BFF"></polygon><g style="opacity:0.2"><polygon points="201.08 264.98 201.09 267.79 216.47 258.9 216.54 281.35 189.03 297.23 188.98 277.43 188.97 274.78 188.96 271.97 201.08 264.98"></polygon></g><polygon points="241.21 247.15 247.08 251 241.25 261.61 241.24 258.27 229.73 264.92 229.71 257.13 241.22 250.48 241.21 247.15" style="fill:#407BFF"></polygon><polygon points="223.25 326.93 223.26 330.26 234.77 323.61 234.8 331.4 223.28 338.05 223.29 341.38 217.42 337.53 223.25 326.93" style="fill:#407BFF"></polygon><path d="M268,316.6c0,.49.36.7.79.45a1.73,1.73,0,0,0,.77-1.35l0-15.46-1.56.9Z" style="fill:#407BFF"></path><path d="M264.09,318.83c0,.49.35.7.78.45a1.71,1.71,0,0,0,.77-1.35l0-15.45-1.56.9Z" style="fill:#407BFF"></path><path d="M260.22,321.06c0,.5.35.7.78.46a1.74,1.74,0,0,0,.78-1.36l0-15.45-1.56.9Z" style="fill:#407BFF"></path><path d="M256.35,323.3c0,.49.35.7.78.45a1.74,1.74,0,0,0,.78-1.35l-.05-15.46-1.56.9Z" style="fill:#407BFF"></path><g style="opacity:0.30000000000000004"><path d="M268,316.6c0,.49.36.7.79.45a1.73,1.73,0,0,0,.77-1.35l0-15.46-1.56.9Z"></path><path d="M264.09,318.83c0,.49.35.7.78.45a1.71,1.71,0,0,0,.77-1.35l0-15.45-1.56.9Z"></path><path d="M260.22,321.06c0,.5.35.7.78.46a1.74,1.74,0,0,0,.78-1.36l0-15.45-1.56.9Z"></path><path d="M256.35,323.3c0,.49.35.7.78.45a1.74,1.74,0,0,0,.78-1.35l-.05-15.46-1.56.9Z"></path></g><path d="M269.47,300.24l0,15.46a1.73,1.73,0,0,1-.77,1.35c-.43.25-.79,0-.79-.45l0-15.46-2.31,1.34,0,15.45a1.71,1.71,0,0,1-.77,1.35c-.43.25-.78,0-.78-.45l0-15.45-2.31,1.33,0,15.45a1.74,1.74,0,0,1-.78,1.36c-.43.24-.78,0-.78-.46l-.05-15.45-2.31,1.33.05,15.46a1.74,1.74,0,0,1-.78,1.35c-.43.25-.78,0-.78-.45l-.05-15.46-2.39,1.38.05,18.45c0,.82.59,1.15,1.3.74l15.37-8.87a2.84,2.84,0,0,0,1.28-2.24l-.05-18.44Z" style="fill:#407BFF"></path><path d="M269.47,300.24l0,15.46a1.73,1.73,0,0,1-.77,1.35c-.43.25-.79,0-.79-.45l0-15.46-2.31,1.34,0,15.45a1.71,1.71,0,0,1-.77,1.35c-.43.25-.78,0-.78-.45l0-15.45-2.31,1.33,0,15.45a1.74,1.74,0,0,1-.78,1.36c-.43.24-.78,0-.78-.46l-.05-15.45-2.31,1.33.05,15.46a1.74,1.74,0,0,1-.78,1.35c-.43.25-.78,0-.78-.45l-.05-15.46-2.39,1.38.05,18.45c0,.82.59,1.15,1.3.74l15.37-8.87a2.84,2.84,0,0,0,1.28-2.24l-.05-18.44Z" style="opacity:0.1"></path><polygon points="266.6 295.27 259.13 299.58 259.14 302.12 266.61 297.81 266.6 295.27" style="fill:#407BFF"></polygon><polygon points="266.6 295.27 259.13 299.58 259.14 302.12 266.61 297.81 266.6 295.27" style="opacity:0.1"></polygon><polygon points="257.86 306.94 260.17 305.61 261.73 304.71 264.04 303.38 265.6 302.48 267.91 301.14 269.47 300.24 271.86 298.86 273.2 298.09 273.19 294.01 266.61 297.81 259.14 302.12 252.56 305.92 252.57 310 253.91 309.22 256.3 307.84 257.86 306.94" style="fill:#407BFF"></polygon><path d="M179.91,255a3.78,3.78,0,0,1,2-.59l-.46,1.58a2.78,2.78,0,0,0-1.5.38c-.65.38-.88.76-.88,1.07,0,.95,3.07-1.53,3.08.76a4.28,4.28,0,0,1-2.39,3.39,3.68,3.68,0,0,1-2.28.63l.49-1.58a2.91,2.91,0,0,0,1.79-.42c.63-.36.88-.71.88-1,0-1-3.07,1.5-3.08-.81A4.25,4.25,0,0,1,179.91,255Z" style="fill:#fff"></path><polygon points="189.6 250.91 188.13 256.58 186.71 257.4 185.91 255.24 185.09 258.33 183.67 259.15 182.16 255.2 183.56 254.4 184.43 256.81 185.3 253.39 186.56 252.66 187.43 255.11 188.32 251.65 189.6 250.91" style="fill:#fff"></polygon><g style="isolation:isolate"><polygon points="190.07 255.46 190.06 250.65 191.52 249.8 191.54 254.61 190.07 255.46" style="fill:#fff"></polygon><path d="M190.79,249.69c-.54.31-.9.12-.9-.38a1.76,1.76,0,0,1,.9-1.42c.54-.31.89-.15.89.35A1.78,1.78,0,0,1,190.79,249.69Z" style="fill:#fff"></path></g><path d="M195.12,247.64c1.13-.65,2-.22,2.06,1.3a4.43,4.43,0,0,1-2.05,3.68c-.49.28-.88.34-1.17.16v2.16l-1.48.85v-6.54l1.4-.81v.48A3.05,3.05,0,0,1,195.12,247.64Zm-.3,3.82a2,2,0,0,0,.87-1.66c0-.72-.38-.92-.88-.64a1.93,1.93,0,0,0-.88,1.66c0,.72.39.92.89.64" style="fill:#fff"></path><path d="M202.14,246.08c0,.13,0,.3,0,.44l-3,1.76c.12.41.49.49,1,.17a2.56,2.56,0,0,0,1-1l.78.48a4.62,4.62,0,0,1-1.78,1.81c-1.5.86-2.47.36-2.47-1.08a4.72,4.72,0,0,1,2.3-3.81C201.13,244.17,202.14,244.5,202.14,246.08Zm-3.09,1.32,1.72-1c-.08-.46-.41-.59-.86-.33a1.85,1.85,0,0,0-.86,1.32" style="fill:#fff"></path><path d="M209,242.59l1.17,1.28-1.64.95-1-1.09-.84.48v1.65l-1.53.89,0-6.22,2.47-1.43c1.48-.85,2.41-.51,2.42.92A3.93,3.93,0,0,1,209,242.59Zm-1.44-.23a1.67,1.67,0,0,0,.95-1.45c0-.58-.32-.74-1-.37l-.85.49v1.82l.85-.49" style="fill:#fff"></path><polygon points="210.81 243.48 210.8 238.67 212.27 237.82 212.28 242.63 210.81 243.48" style="fill:#fff"></polygon><path d="M211.53,237.71c-.54.31-.89.13-.9-.38a1.77,1.77,0,0,1,.89-1.41c.55-.32.91-.16.91.35A1.75,1.75,0,0,1,211.53,237.71Z" style="fill:#fff"></path><path d="M216.33,235.48l1.4-.81v3.93a4.54,4.54,0,0,1-2.45,4.11,3.19,3.19,0,0,1-2.08.57l.53-1.49a2,2,0,0,0,1.41-.3,2,2,0,0,0,1.12-1.81v-.16A3.18,3.18,0,0,1,215,240.8c-1.12.65-2.06.28-2.06-1.14a4.29,4.29,0,0,1,2-3.5c.58-.34,1-.38,1.32-.1Zm-1,3.78a1.83,1.83,0,0,0,.91-1.51c0-.59-.39-.76-.92-.45a1.85,1.85,0,0,0-.91,1.51c0,.58.39.76.92.45" style="fill:#fff"></path><path d="M220.14,231.49v2.23a3.67,3.67,0,0,1,1.26-1.25c1-.57,1.74-.36,1.74,1.14v2.75l-1.47.85v-2.48c0-.69-.26-.83-.69-.58a1.76,1.76,0,0,0-.83,1.61v2.33l-1.47.85,0-6.6Z" style="fill:#fff"></path><path d="M225.69,229v1.25l1-.56V231l-1,.56v1.6c0,.35.19.44.45.29a1.57,1.57,0,0,0,.45-.41l.36,1a3.59,3.59,0,0,1-1,.86c-1.07.62-1.7.38-1.7-.86v-1.61l-.61.35v-1.26l.61-.35v-1.26Z" style="fill:#fff"></path><path d="M180.3,324.21a3.71,3.71,0,0,1,2-.6l-.46,1.58a2.79,2.79,0,0,0-1.5.39c-.65.37-.88.75-.88,1.06,0,1,3.07-1.53,3.08.76a4.26,4.26,0,0,1-2.39,3.39,3.61,3.61,0,0,1-2.28.63l.49-1.58a2.81,2.81,0,0,0,1.79-.42c.63-.36.88-.71.88-1,0-1-3.07,1.51-3.08-.81A4.24,4.24,0,0,1,180.3,324.21Z" style="fill:#fff"></path><polygon points="190 320.14 188.52 325.81 187.1 326.63 186.3 324.47 185.48 327.56 184.06 328.39 182.56 324.43 183.95 323.63 184.82 326.05 185.69 322.62 186.95 321.9 187.82 324.34 188.71 320.88 190 320.14" style="fill:#fff"></polygon><polygon points="190.46 324.69 190.45 319.88 191.91 319.03 191.93 323.84 190.46 324.69" style="fill:#fff"></polygon><path d="M191.18,318.92c-.54.31-.9.12-.9-.38a1.76,1.76,0,0,1,.9-1.42c.54-.31.89-.15.89.36A1.74,1.74,0,0,1,191.18,318.92Z" style="fill:#fff"></path><path d="M195.51,316.88c1.13-.66,2.05-.23,2.06,1.3a4.42,4.42,0,0,1-2,3.67,1.17,1.17,0,0,1-1.17.17v2.15l-1.47.85,0-6.54,1.4-.81v.48A3,3,0,0,1,195.51,316.88Zm-.3,3.81a2,2,0,0,0,.87-1.66c0-.72-.38-.92-.88-.64a1.93,1.93,0,0,0-.88,1.66c0,.73.39.93.89.64" style="fill:#fff"></path><path d="M202.53,315.32a3.24,3.24,0,0,1,0,.43l-3,1.76c.13.41.49.49,1,.18a2.66,2.66,0,0,0,1-1l.78.48a4.62,4.62,0,0,1-1.78,1.81c-1.5.86-2.46.37-2.47-1.07a4.72,4.72,0,0,1,2.3-3.81C201.52,313.4,202.53,313.73,202.53,315.32Zm-3.09,1.31,1.72-1c-.08-.46-.4-.59-.86-.33a1.85,1.85,0,0,0-.86,1.32" style="fill:#fff"></path><polygon points="207.06 308.88 207.07 313.7 209.66 312.21 209.66 313.61 205.55 315.98 205.53 309.76 207.06 308.88" style="fill:#fff"></polygon><path d="M214.46,308.43c0,.13,0,.3,0,.44l-3.05,1.75c.12.42.49.5,1,.18a2.61,2.61,0,0,0,1-1l.77.49a4.62,4.62,0,0,1-1.78,1.81c-1.49.86-2.47.37-2.47-1.08a4.73,4.73,0,0,1,2.3-3.81C213.45,306.52,214.45,306.84,214.46,308.43Zm-3.1,1.32,1.72-1c-.08-.46-.41-.59-.86-.33a1.83,1.83,0,0,0-.86,1.32" style="fill:#fff"></path><path d="M217.05,302.66a1.7,1.7,0,0,1,1-.31l-.36,1.4a.79.79,0,0,0-.44.11,1,1,0,0,0-.49.91v.11l1-.57v1.26l-.95.55v3.37l-1.47.85V307l-.61.35v-1.26l.61-.35v-.13A3.35,3.35,0,0,1,217.05,302.66Z" style="fill:#fff"></path><path d="M219.92,301.79V303l1-.55v1.26l-1,.55v1.6c0,.36.17.45.43.3a1.62,1.62,0,0,0,.46-.41l.36,1a3.6,3.6,0,0,1-1,.87c-1.08.62-1.7.38-1.71-.86v-1.62l-.61.36v-1.27l.6-.35v-1.25Z" style="fill:#fff"></path><g style="opacity:0.5"><polygon points="197.65 212 197.66 216.46 178.22 227.68 178.21 223.23 197.65 212" style="fill:#fff"></polygon><polygon points="238.85 195.26 238.86 199.72 218.84 211.27 218.83 206.82 238.85 195.26" style="fill:#fff"></polygon><polygon points="280.66 178.07 280.67 182.52 256.1 196.81 256.09 192.36 280.66 178.07" style="fill:#fff"></polygon><polygon points="280.64 171.03 280.65 175.49 244.24 196.61 244.23 192.16 280.64 171.03" style="fill:#fff"></polygon><g style="isolation:isolate"><polygon points="250.72 195.46 250.73 199.91 206.39 225.51 206.38 221.06 250.72 195.46" style="fill:#fff"></polygon><polygon points="231.1 192.69 231.11 197.14 202.38 213.73 202.37 209.28 231.1 192.69" style="fill:#fff"></polygon><polygon points="213.67 209.8 213.68 214.25 178.24 234.72 178.22 230.26 213.67 209.8" style="fill:#fff"></polygon></g><polygon points="201.21 224.04 201.22 228.49 178.26 241.75 178.25 237.3 201.21 224.04" style="fill:#fff"></polygon></g><polygon points="185.98 182.92 186 189 184.71 189.74 184.69 183.66 185.98 182.92" style="fill:#fff"></polygon><polygon points="184 185.35 184.02 190.14 182.73 190.88 182.71 186.09 184 185.35" style="fill:#fff"></polygon><polygon points="182.03 187.82 182.04 191.28 180.75 192.03 180.74 188.57 182.03 187.82" style="fill:#fff"></polygon><polygon points="180.06 190.3 180.06 192.42 178.77 193.17 178.77 191.04 180.06 190.3" style="fill:#fff"></polygon><polygon points="196.92 176.6 196.94 182.68 189.05 187.23 189.03 181.16 196.92 176.6" style="fill:#fff"></polygon><polygon points="210.37 168.84 210.39 174.91 199.93 180.95 199.91 174.88 210.37 168.84" style="fill:#fff"></polygon><path d="M280.55,130.14l1.48-.85v2.64l-1.47.86v1.71l-10.46,6v-6.07l10.46-6Zm-4.48,6.07,0-4.3-5.19,3v4.29l5.2-3" style="fill:#fff"></path><polygon points="276.05 131.91 276.07 136.21 270.87 139.21 270.86 134.91 276.05 131.91" style="fill:#407BFF"></polygon></g><g id="freepik--Character--inject-82"><path d="M341.36,252.19l17.53,39.74L350,301.72l3.18,13.37,17.66-15.33a9.53,9.53,0,0,0,2.34-11.34l-14.19-29.49a12.11,12.11,0,0,0-11.15-6.86Z" style="fill:#37474f"></path><path d="M362.47,296.82s-2.8-2.33-3.58-4.89l-1.54,1.71A8,8,0,0,0,362.47,296.82Z" style="opacity:0.30000000000000004"></path><path d="M341.36,252.19l17.53,39.74L350,301.72l3.18,13.37,17.66-15.33a9.53,9.53,0,0,0,2.34-11.34l-14.19-29.49a12.11,12.11,0,0,0-11.15-6.86Z" style="fill:#fff;opacity:0.1"></path><path d="M328.89,463.53c-.74,1.54-3.07,3-5.62,3.39s-5.15-.14-7.71-.49a51.53,51.53,0,0,0-11.51-.3,61.57,61.57,0,0,1-7.16.52,11.38,11.38,0,0,1-6.73-2.14,6.86,6.86,0,0,1-2.53-4.29,6.5,6.5,0,0,0,2.53,5.79,11.3,11.3,0,0,0,6.73,2.13,59.43,59.43,0,0,0,7.16-.51,50.94,50.94,0,0,1,11.51.3c2.56.35,5.34,1.09,7.89.67s4.88-1.85,5.62-3.39Z" style="fill:#263238"></path><path d="M301,459c2.15,0,1.36-3.18,3.4-5.31-.83.05-1.66.06-2.5.06C300,456.37,299.5,459,301,459Z" style="fill:#fff"></path><path d="M305.41,458.81c2.16,0,1.6-3.79,3.72-6a13,13,0,0,1-1.47.43c-.42.09-.85.16-1.28.23C304.49,456.15,304,458.81,305.41,458.81Z" style="fill:#fff"></path><path d="M326.67,451.55a3,3,0,0,0-1.12-1.75l-11.6-.29a9.91,9.91,0,0,1-4.82,3.3c-2.12,2.21-1.56,6-3.72,6-1.46,0-.92-2.66,1-5.34-.67.1-1.35.16-2,.2-2,2.13-1.25,5.31-3.4,5.31-1.45,0-.93-2.61.9-5.25l-1.62,0c-.49,0-1,0-1.49-.08-4.26,3.38-4.62,7-4.07,12.78a16.56,16.56,0,0,0,2.22.24,61.57,61.57,0,0,0,7.16-.52,51.53,51.53,0,0,1,11.51.3c2.56.35,5.15.91,7.71.49s4.88-1.85,5.62-3.39Z" style="fill:#455a64"></path><path d="M298.74,453.63a18.2,18.2,0,0,0-5.8,0c-2.35.58-4.6,2.2-5.22,4.55a5.2,5.2,0,0,0-.09,2,6.86,6.86,0,0,0,2.53,4.29,9.91,9.91,0,0,0,4.51,1.9C294.12,460.67,294.48,457,298.74,453.63Z" style="fill:#fff"></path><path d="M310.86,417.42l2.75,34.38a2.3,2.3,0,0,0,2.3,2.29h5.85a3.77,3.77,0,0,0,3.77-3.64l2.5-32.51Z" style="fill:#d97675"></path><path d="M327.62,423.3l.41-5.36-17.17-.52.43,5.33C316.41,427,323.05,426.17,327.62,423.3Z" style="fill:#bd5655"></path><path d="M352.28,443.72a4.28,4.28,0,0,1-3.52,2.46,7.34,7.34,0,0,1-4.45-1.09c-2-1.28-2.8-3.29-4.17-5.1a30.27,30.27,0,0,0-4.86-4.74,16.13,16.13,0,0,1-4.63-5.38,7,7,0,0,1-.55-2,6.92,6.92,0,0,0,.55,3.78,16.13,16.13,0,0,0,4.63,5.38,30.27,30.27,0,0,1,4.86,4.74c1.37,1.81,2.15,3.82,4.17,5.1a7.42,7.42,0,0,0,4.45,1.1,4.31,4.31,0,0,0,3.52-2.47,9.68,9.68,0,0,0,.21-3.12A3.75,3.75,0,0,1,352.28,443.72Z" style="fill:#263238"></path><path d="M339.1,431.45a1.41,1.41,0,0,0-.28.95,1,1,0,0,0,.63.73,1.41,1.41,0,0,0,1.3-.34,6.76,6.76,0,0,0,.91-1.08,6.69,6.69,0,0,1,4.77-2.57L345,427.82a7.17,7.17,0,0,0-2.65.65A7.28,7.28,0,0,0,339.1,431.45Z" style="fill:#fff"></path><path d="M339.41,426.84a7.36,7.36,0,0,0-3.24,3,1.48,1.48,0,0,0-.28,1,1,1,0,0,0,.63.72,1.42,1.42,0,0,0,1.31-.34,6.7,6.7,0,0,0,.9-1.08,6.82,6.82,0,0,1,3-2.17,6.64,6.64,0,0,1,2.93-.39l-1.43-1.31A7.23,7.23,0,0,0,339.41,426.84Z" style="fill:#fff"></path><path d="M342.3,425.38a15.31,15.31,0,0,0-4.55-3c-2.08-.79-4.66-.68-6.27.87a5.42,5.42,0,0,0-1.38,4.69,7,7,0,0,0,.55,2,9.86,9.86,0,0,0,1.44,2.28C332.64,427.16,337,424.82,342.3,425.38Z" style="fill:#fff"></path><path d="M352.4,438.82a10.47,10.47,0,0,0-1.14-4.89l-2.82-3-2-1.83a6.69,6.69,0,0,0-4.77,2.57,6.76,6.76,0,0,1-.91,1.08,1.41,1.41,0,0,1-1.3.34,1,1,0,0,1-.63-.73,1.41,1.41,0,0,1,.28-.95,7.28,7.28,0,0,1,3.23-3,7.17,7.17,0,0,1,2.65-.65l-.33-.3a6.64,6.64,0,0,0-2.93.39,6.82,6.82,0,0,0-3,2.17,6.7,6.7,0,0,1-.9,1.08,1.42,1.42,0,0,1-1.31.34,1,1,0,0,1-.63-.72,1.48,1.48,0,0,1,.28-1,7.36,7.36,0,0,1,3.24-3,7.23,7.23,0,0,1,3.81-.63l-.06,0-.86-.78c-5.32-.56-9.66,1.78-10.21,6.77a24,24,0,0,0,3.19,3.1,30.27,30.27,0,0,1,4.86,4.74c1.37,1.81,2.15,3.82,4.17,5.1a7.34,7.34,0,0,0,4.45,1.09,4.28,4.28,0,0,0,3.52-2.46,3.75,3.75,0,0,0,.21-1.31C352.55,441.11,352.43,439.33,352.4,438.82Z" style="fill:#455a64"></path><path d="M339.63,403.75,342.55,436c3.78,2.18,7.77,1,9.09-.39l3.64-30.8Z" style="fill:#d97675"></path><path d="M354.54,411.09l.74-6.3-15.65-1,.64,7.09a14.24,14.24,0,0,0,6.31,1.72A18.3,18.3,0,0,0,354.54,411.09Z" style="fill:#bd5655"></path><path d="M355.06,372.15c6.1-44.74,6.41-56.19-4.81-70.91a5,5,0,0,1-.57-.94,54.57,54.57,0,0,1-39.05,4.44c-2.76,20.59-5.14,55.44-3.68,78.43.51,11.31,1.69,24.61,2.88,36.19a16,16,0,0,0,19.3.53c1.55-13.11,2.48-24.18.23-35,2.43-12.28,4-27.7,4-27.7l1.86,27.13,2.93,22.27a15.93,15.93,0,0,0,18.1.64C357.85,392.54,357.74,381.23,355.06,372.15Z" style="fill:#407BFF"></path><path d="M355.06,372.15c6.1-44.74,6.41-56.19-4.81-70.91a5,5,0,0,1-.57-.94,54.57,54.57,0,0,1-39.05,4.44c-2.76,20.59-5.14,55.44-3.68,78.43.51,11.31,1.69,24.61,2.88,36.19a16,16,0,0,0,19.3.53c1.55-13.11,2.48-24.18.23-35,2.43-12.28,4-27.7,4-27.7l1.86,27.13,2.93,22.27a15.93,15.93,0,0,0,18.1.64C357.85,392.54,357.74,381.23,355.06,372.15Z" style="opacity:0.2"></path><path d="M336.06,351.83l3.37-14.13c3.92-.64,10.06-3.21,13.29-8.59a27.07,27.07,0,0,1-16.29,5.74l-3.07,22.34.65,9.55.27-3.48A73.63,73.63,0,0,1,336.06,351.83Z" style="opacity:0.30000000000000004"></path><path d="M325.91,252.76l-9.13,1.59c-2.17,4-5.07,8-7.24,12-1.64,3-3.32,6.17-3.2,9.58a9.81,9.81,0,0,0,3.42,6.94,5.55,5.55,0,0,1,1.94,5l-4.58,30.31c13.26,12,47.37,3.43,51.51-.14-1.78-9-5.69-12.6-7.73-22.08-1.63-7.58,1.57-15.9,2.11-18.4a58.41,58.41,0,0,0,1.66-11.06,19.55,19.55,0,0,0-2.59-10.74l-.06-.09a11.54,11.54,0,0,0-11.58-5.25Z" style="fill:#37474f"></path><path d="M325.91,252.76l-9.13,1.59c-2.17,4-5.07,8-7.24,12-1.64,3-3.32,6.17-3.2,9.58a9.81,9.81,0,0,0,3.42,6.94,5.55,5.55,0,0,1,1.94,5l-4.58,30.31c13.26,12,47.37,3.43,51.51-.14-1.78-9-5.69-12.6-7.73-22.08-1.63-7.58,1.57-15.9,2.11-18.4a58.41,58.41,0,0,0,1.66-11.06,19.55,19.55,0,0,0-2.59-10.74l-.06-.09a11.54,11.54,0,0,0-11.58-5.25Z" style="fill:#fff;opacity:0.2"></path><path d="M314.7,223.85a8.8,8.8,0,0,1-1.89-2.27c.95-3.88,2.73-8.09,5.62-10.86a15.76,15.76,0,0,1,10.8-4.5,12.52,12.52,0,0,1,10.24,5.28,12.7,12.7,0,0,1,7.36,4.4,12.28,12.28,0,0,1,2.46,8.07c-.25,4.27-2.69,8.08-3.74,12.23-.46,1.85-.9,3.71-1.34,5.57a6.49,6.49,0,0,1-5.63,4.23c-6,5.58-15.29,1.14-16.91-6.23S314.7,223.85,314.7,223.85Z" style="fill:#263238"></path><polygon points="312.95 230.69 309.96 235.88 313.24 237.09 312.95 230.69" style="fill:#bd5655"></polygon><path d="M338.58,246a13.78,13.78,0,0,1-7.92.75,10.62,10.62,0,0,1-8.17-8.28,5.53,5.53,0,0,0,6.91-7.31,4.2,4.2,0,0,0-2.13-2.33,4.12,4.12,0,0,0-4.25.91,7.17,7.17,0,0,0-2.21,3.91,23.76,23.76,0,0,1-3.36-9.13,7.72,7.72,0,0,1-2.15-1.12,9.85,9.85,0,0,1,.82-3.42,5.65,5.65,0,0,0-1.43,2.94,3.23,3.23,0,0,1-.75-.57,25.21,25.21,0,0,0-1.33,6,53.39,53.39,0,0,0,.7,14.47c1.09,5.42,2,5.59,11.84,5l1.12,6s8.55,3.58,13.55-1.75Z" style="fill:#d97675"></path><path d="M347.59,223.4l-2.21.79a1.1,1.1,0,0,1-1-.12,4.19,4.19,0,0,1-1.35-5.62,1,1,0,0,1,.71-.49l2.47-.52a1.12,1.12,0,0,1,1,.33,4.53,4.53,0,0,1,1.2,2.13,5.63,5.63,0,0,1-.17,2.78A1.13,1.13,0,0,1,347.59,223.4Z" style="fill:#407BFF"></path><path d="M363.58,268.28c-3-3.31-3.42-8.32-2.32-12.65s3.51-8.19,5.63-12.13,4-8.18,4-12.65a15.27,15.27,0,0,0-24.15-12.27c-1.15.83-.85,2.95.24,3.86,2.07-1.17,5.36,0,6.75,1.89a8.59,8.59,0,0,1,1.05,6.85,31.6,31.6,0,0,1-2.65,6.61A39.15,39.15,0,0,0,348,251a19,19,0,0,0,3.33,13.16C354.16,267.83,359,269.2,363.58,268.28Z" style="fill:#263238"></path><path d="M257.62,252.74,253,256.16a2.87,2.87,0,0,0-1.15,2.29v1.86a2.85,2.85,0,0,0,1.28,2.38l.43.3a1.48,1.48,0,0,0,2.11-.52h0c.67,3.91,5.21,7.17,5.21,7.17A191.65,191.65,0,0,0,282,296.72a5.08,5.08,0,0,0,6.43.71c10.73-7,19.61-19.05,19.61-19.05l-11.58-8-10,13-19-18.67-1.27-10.56a2.23,2.23,0,0,0-1.32-1.77l-12.07-5.24a1.41,1.41,0,0,0-1.83.67h0a1.41,1.41,0,0,0,.64,1.91Z" style="fill:#d97675"></path><path d="M255.71,262.47c-.41-1.45-.64-3.4,0-4.12l-1.81,1,.2,1.85Z" style="fill:#bd5655"></path><path d="M257.62,252.74l1.41-.38a1.17,1.17,0,0,1,.74.06l2,.89-1.61-1.22a1.11,1.11,0,0,0-1.21-.09Z" style="fill:#bd5655"></path><path d="M277.9,273a2.35,2.35,0,0,1,2.19.59l2.66,2.54a2.32,2.32,0,0,1,.7,2l0,.24-.77-.72c-9.46,3-8.44,12.47-8.44,12.47l1.34,1.7a2.33,2.33,0,0,1-2.23-.85L270,286.77a2.34,2.34,0,0,1-.5-1.56C269.64,282.55,270.66,274.76,277.9,273Z" style="fill:#fff"></path><path d="M277.9,273a2.35,2.35,0,0,1,2.19.59l2.66,2.54a2.32,2.32,0,0,1,.7,2l0,.24-.77-.72c-9.46,3-8.44,12.47-8.44,12.47l1.34,1.7a2.33,2.33,0,0,1-2.23-.85L270,286.77a2.34,2.34,0,0,1-.5-1.56C269.64,282.55,270.66,274.76,277.9,273Z" style="fill:#37474f"></path><path d="M277.9,273a2.35,2.35,0,0,1,2.19.59l2.66,2.54a2.32,2.32,0,0,1,.7,2l0,.24-.77-.72c-9.46,3-8.44,12.47-8.44,12.47l1.34,1.7a2.33,2.33,0,0,1-2.23-.85L270,286.77a2.34,2.34,0,0,1-.5-1.56C269.64,282.55,270.66,274.76,277.9,273Z" style="fill:#fff;opacity:0.30000000000000004"></path><path d="M282.64,277.62l.77.72,3.2,3,1.12-1.73,12.94-16.85a21.42,21.42,0,0,1,14.41-8.22l1.73-.21s3.47,14.54-4,22.64l-14.21,15a56.34,56.34,0,0,1-9.49,7.32,6.63,6.63,0,0,1-8.81-1.48l-6.13-7.78S273.18,280.63,282.64,277.62Z" style="fill:#37474f"></path><path d="M282.64,277.62l.77.72,3.2,3,1.12-1.73,12.94-16.85a21.42,21.42,0,0,1,14.41-8.22l1.73-.21s3.47,14.54-4,22.64l-14.21,15a56.34,56.34,0,0,1-9.49,7.32,6.63,6.63,0,0,1-8.81-1.48l-6.13-7.78S273.18,280.63,282.64,277.62Z" style="fill:#fff;opacity:0.1"></path></g></svg>